FILE "Rally Cross (USA).bin" BINARY
  TRACK 01 MODE2/2352
    INDEX 01 00:00:00
  TRACK 02 AUDIO
    INDEX 00 17:08:70
    INDEX 01 17:10:70
  TRACK 03 AUDIO
    INDEX 00 21:57:68
    INDEX 01 21:59:68
  TRACK 04 AUDIO
    INDEX 00 28:03:29
    INDEX 01 28:05:29
  TRACK 05 AUDIO
    INDEX 00 35:03:59
    INDEX 01 35:05:59
  TRACK 06 AUDIO
    INDEX 00 41:19:68
    INDEX 01 41:21:68
  TRACK 07 AUDIO
    INDEX 00 47:17:15
    INDEX 01 47:19:15
